<?xml version="1.0" standalone="no"?>
<!DOCTYPE svg PUBLIC "-//W3C//DTD SVG 20010904//EN"
 "http://www.w3.org/TR/2001/REC-SVG-20010904/DTD/svg10.dtd">
<svg version="1.0" xmlns="http://www.w3.org/2000/svg"
 width="512.000000pt" height="512.000000pt" viewBox="0 0 512.000000 512.000000"
 preserveAspectRatio="xMidYMid meet">
<metadata>
Created by potrace 1.14, written by Peter Selinger 2001-2017
</metadata>
<g transform="translate(0.000000,512.000000) scale(0.100000,-0.100000)"
fill="#000000" stroke="none">
<path d="M130 2560 l0 -2430 2445 0 2445 0 0 2430 0 2430 -2445 0 -2445 0 0
-2430z m4590 0 l0 -2130 -2145 0 -2145 0 0 2130 0 2130 2145 0 2145 0 0 -2130z"/>
<path d="M2460 3888 c-56 -112 -149 -293 -205 -403 -56 -110 -178 -348 -270
-530 -92 -181 -220 -433 -285 -560 -65 -126 -188 -369 -275 -540 -87 -170
-200 -392 -251 -492 -52 -99 -94 -184 -94 -187 0 -4 131 -5 291 -4 l291 3 84
165 c47 91 169 329 271 530 102 201 225 442 273 535 48 94 129 253 180 354
l93 184 17 -34 c9 -19 97 -191 195 -384 387 -758 469 -918 577 -1132 l113
-223 293 0 c160 0 292 4 292 8 0 4 -4 12 -9 18 -4 5 -77 144 -161 309 -84 165
-208 408 -275 540 -196 385 -581 1140 -855 1680 -101 198 -184 361 -185 363
-1 1 -48 -89 -105 -200z"/>
</g>
</svg>
